HIERARCHY
ROOT ui
{
	 OFFSET 0 0 0
	 CHANNELS 3 XPosition YPosition Z Position
	 EndSite
	 {
	 OFFSET 0 -1 0
	 }
}
ROOT li
{
	 OFFSET 0 0 0
	 CHANNELS 3 XPosition YPosition Z Position
	 EndSite
	 {
	 OFFSET 0 -1 0
	 }
}
ROOT ul
{
	 OFFSET 0 0 0
	 CHANNELS 3 XPosition YPosition Z Position
	 EndSite
	 {
	 OFFSET 0 -1 0
	 }
}
ROOT ll
{
	 OFFSET 0 0 0
	 CHANNELS 3 XPosition YPosition Z Position
	 EndSite
	 {
	 OFFSET 0 -1 0
	 }
}
ROOT tt
{
	 OFFSET 0 0 0
	 CHANNELS 3 XPosition YPosition Z Position
	 EndSite
	 {
	 OFFSET 0 -1 0
	 }
}
ROOT tb
{
	 OFFSET 0 0 0
	 CHANNELS 3 XPosition YPosition Z Position
	 EndSite
	 {
	 OFFSET 0 -1 0
	 }
}
ROOT td
{
	 OFFSET 0 0 0
	 CHANNELS 3 XPosition YPosition Z Position
	 EndSite
	 {
	 OFFSET 0 -1 0
	 }
}
ROOT v
{
	 OFFSET 0 0 0
	 CHANNELS 3 XPosition YPosition Z Position
	 EndSite
	 {
	 OFFSET 0 -1 0
	 }
}
ROOT bn
{
	 OFFSET 0 0 0
	 CHANNELS 3 XPosition YPosition Z Position
	 EndSite
	 {
	 OFFSET 0 -1 0
	 }
}
MOTION
Frames: 21
Frame Time: 0.002
0.007075404167175293	-0.002341063022613525	0		0.5653944702148438	-2.619810302734375	0		-0.951941162109375	0.24935772705078124	0		-0.65069775390625	-2.737961669921875	0		2.46923876953125	-0.6246427001953125	0		3.950720458984375	-0.48482351684570313	0		5.11797314453125	-0.47888937377929686	0		6.01074951171875	0.4796553039550781	0		-0.0018043999671936036	6.00460546875	0		
0.007656118869781494	-0.0023103950023651123	0		0.54309912109375	-2.612403564453125	0		-0.9472962646484375	0.2533201141357422	0		-0.7186600341796875	-2.709809326171875	0		2.462246826171875	-0.5984786376953125	0		3.943646240234375	-0.46365505981445315	0		5.1216201171875	-0.4748953857421875	0		6.02058935546875	0.4955519409179687	0		-0.01913838195800781	6.01092919921875	0		
0.006390092849731445	0.005723504066467286	0		0.5648712768554688	-2.60274365234375	0		-0.9466940307617188	0.2533192901611328	0		-0.6478450927734375	-2.6979541015625	0		2.5181875	-0.578369140625	0		3.977936279296875	-0.4831924743652344	0		5.14320556640625	-0.4762190551757812	0		6.016060546875	0.48765673828125	0		-0.051664989471435545	6.00447119140625	0		
0.00887249755859375	-0.0023345470428466795	0		0.5443345336914063	-2.612423583984375	0		-0.9460817260742187	0.25328900146484373	0		-0.7218681640625	-2.675761474609375	0		2.530030029296875	-0.5645669555664062	0		3.976763916015625	-0.4701720886230469	0		5.14555908203125	-0.49225543212890627	0		6.0128193359375	0.49671847534179686	0		-0.03219257354736328	5.99713525390625	0		
0.00948199462890625	-0.0023903510570526124	0		0.5620520629882813	-2.606755126953125	0		-0.9135430297851562	0.2487069549560547	0		-0.675843994140625	-2.65155859375	0		2.527838623046875	-0.5525634765625	0		4.001111328125	-0.4865986633300781	0		5.16815185546875	-0.4936458435058594	0		6.004427734375	0.49683795166015626	0		-0.01738485336303711	6.01084912109375	0		
0.006006885051727295	-0.006410140037536621	0		0.5077123107910156	-2.60294091796875	0		-0.948949951171875	0.24920361328125	0		-0.7390191650390625	-2.63760546875	0		2.533789306640625	-0.5307196655273437	0		3.982836669921875	-0.47835333251953127	0		5.17180908203125	-0.48975244140625	0		6.013736328125	0.479640869140625	0		-0.032038482666015625	5.998009765625	0		
0.010623183250427246	-0.0025909938812255858	0		0.575124755859375	-2.613144287109375	0		-0.9384013671875	0.2489193572998047	0		-0.7652352294921875	-2.624286865234375	0		2.551798828125	-0.5030996398925781	0		4.038188232421875	-0.49133843994140625	0		5.1881982421875	-0.50009423828125	0		6.02354443359375	0.4954151306152344	0		-0.04944119644165039	6.00318701171875	0		
-0.03881096267700195	0.0020801830291748047	0		0.5179716796875	-2.592340576171875	0		-0.9338607788085938	0.2517034454345703	0		-0.7165653076171875	-2.615219482421875	0		2.615402099609375	-0.4972521667480469	0		4.038223876953125	-0.45844024658203125	0		5.2037919921875	-0.4944447937011719	0		6.01918212890625	0.5043963317871094	0		-0.014898076057434081	6.00848828125	0		
0.01458327579498291	4.655100032687187E-5	0		0.5662095336914063	-2.60528662109375	0		-0.9064326782226563	0.25208551025390624	0		-0.7239613647460937	-2.6052666015625	0		2.61123193359375	-0.47232162475585937	0		4.03323876953125	-0.48349090576171877	0		5.22935693359375	-0.4859787902832031	0		6.0154658203125	0.4963440246582031	0		-0.015499088287353515	6.01033447265625	0		
-0.06812919616699219	-0.0017960790395736693	0		0.5126493530273437	-2.599596923828125	0		-0.9471694946289062	0.2485500030517578	0		-0.7324461669921875	-2.5953232421875	0		2.607953369140625	-0.44842837524414064	0		4.044779052734375	-0.47082632446289063	0		5.23141015625	-0.5031518249511718	0		6.0147861328125	0.49622540283203126	0		-0.031426626205444334	5.99840185546875	0		
0.0071484088897705075	7.648620009422302E-4	0		0.56478076171875	-2.607653564453125	0		-0.9050205688476562	0.24363888549804688	0		-0.7630596923828125	-2.587045654296875	0		2.62248828125	-0.42984625244140623	0		4.058005126953125	-0.4712089538574219	0		5.23575146484375	-0.4963753662109375	0		6.01114990234375	0.5051407470703125	0		0.002820230007171631	6.0036298828125	0		
-0.040795269012451174	-0.0026923930644989014	0		0.5150989379882812	-2.597072998046875	0		-0.9368394165039062	0.24790855407714843	0		-0.7218839111328125	-2.585960693359375	0		2.655913330078125	-0.41158935546875	0		4.07644921875	-0.45168963623046876	0		5.2458232421875	-0.49970761108398437	0		6.02896337890625	0.4866905212402344	0		-0.015043014526367188	6.00968359375	0		
0.015254958152770996	-8.598949909210205E-4	0		0.5710892944335938	-2.601231689453125	0		-0.9327860107421875	0.25057273864746094	0		-0.7526873168945313	-2.5767255859375	0		2.670251220703125	-0.3920378112792969	0		4.09030029296875	-0.462113525390625	0		5.261658203125	-0.5111469116210937	0		6.02438818359375	0.5125988159179687	0		-0.016104894638061522	6.0104423828125	0		
-0.0427481803894043	0.0048078069686889645	0		0.5331892700195312	-2.59188037109375	0		-0.9369299926757813	0.24735028076171875	0		-0.7286931762695312	-2.574400390625	0		2.700388671875	-0.37875759887695315	0		4.10545703125	-0.44756771850585936	0		5.26673583984375	-0.5014197387695313	0		6.02015869140625	0.5044863891601562	0		-0.031500289916992184	5.99741455078125	0		
0.011931021690368653	-0.004370333194732666	0		0.5647849731445312	-2.608675048828125	0		-0.9430523071289062	0.25114459228515623	0		-0.7647808227539062	-2.5711162109375	0		2.709647705078125	-0.35214901733398435	0		4.10528076171875	-0.4477863464355469	0		5.27654296875	-0.5027810363769531	0		6.0148212890625	0.4953818054199219	0		-0.016575002670288087	6.00988232421875	0		
-0.046243419647216795	0.0012701330184936523	0		0.5116546325683594	-2.60310595703125	0		-0.9433197021484375	0.2508300476074219	0		-0.7290531005859375	-2.57501025390625	0		2.711600830078125	-0.33943490600585935	0		4.09915576171875	-0.4399180603027344	0		5.2821259765625	-0.5130845947265625	0		6.00655078125	0.49531634521484375	0		-0.066210205078125	5.99337939453125	0		
0.006407759189605713	-8.953099846839904E-4	0		0.514454833984375	-2.59845361328125	0		-0.9377152709960938	0.24640965270996093	0		-0.7893421630859375	-2.575359619140625	0		2.722522216796875	-0.32487490844726563	0		4.11365771484375	-0.4513951416015625	0		5.285921875	-0.5063654479980468	0		6.02419775390625	0.49382269287109376	0		-0.01542066478729248	6.00624365234375	0		
0.021134721755981446	0.004547584056854248	0		0.5431123657226562	-2.60022705078125	0		-0.9299755249023437	0.25294898986816405	0		-0.7136912231445313	-2.57791552734375	0		2.7523984375	-0.31062802124023436	0		4.13289306640625	-0.41494903564453123	0		5.29965771484375	-0.50081396484375	0		6.02409619140625	0.5106119079589844	0		-0.016877588272094728	6.0069453125	0		
0.00871439266204834	0.002423419952392578	0		0.529834228515625	-2.596326904296875	0		-0.9444160766601563	0.24984072875976562	0		-0.765948486328125	-2.57240771484375	0		2.755094482421875	-0.30594778442382814	0		4.12230224609375	-0.42803265380859373	0		5.31616162109375	-0.5083139343261719	0		6.01858544921875	0.5034796142578125	0		-0.018338998794555663	6.008642578125	0		
0.008321881294250488	0.0021022570133209227	0		0.55440185546875	-2.602041748046875	0		-0.9128814086914062	0.24498794555664063	0		-0.7364464111328125	-2.582224609375	0		2.762867431640625	-0.2963527526855469	0		4.13207666015625	-0.4184466857910156	0		5.30993994140625	-0.49844976806640623	0		6.005041015625	0.49447103881835935	0		-0.06810099029541015	5.99211328125	0		
0.009812930107116698	-0.006251829147338867	0		0.5079897766113282	-2.606614013671875	0		-0.949260498046875	0.24522998046875	0		-0.7320104370117188	-2.596638427734375	0		2.7984716796875	-0.29821066284179687	0		4.13578369140625	-0.4137677001953125	0		5.3295009765625	-0.5030082092285156	0		6.0175224609375	0.48603717041015626	0		-0.03546963119506836	5.9982568359375	0		
